<?xml version="1.0" encoding="utf-8"?>
<!-- Generator: Adobe Illustrator 19.1.0, SVG Export Plug-In . SVG Version: 6.00 Build 0)  -->
<svg version="1.1" id="Layer_1" xmlns="http://www.w3.org/2000/svg" xmlns:xlink="http://www.w3.org/1999/xlink" x="0px" y="0px"
	 viewBox="-209 369 50 50" enable-background="new -209 369 50 50" xml:space="preserve">
<g>
	<g>
		<g>
			<g>
				<path fill="#FFFFFF" class ="fm_fill" d="M-192.4,390.1h-3.5c-0.2,0-0.4,0.2-0.4,0.5v6.2c0,0.3,0.2,0.5,0.4,0.5h3.5c0.2,0,0.4-0.2,0.4-0.5v-6.2
					C-192,390.3-192.2,390.1-192.4,390.1z M-194.6,390.3h1c0.1,0,0.1,0.1,0.1,0.1c0,0.1-0.1,0.1-0.1,0.1h-1c-0.1,0-0.1-0.1-0.1-0.1
					C-194.8,390.4-194.7,390.3-194.6,390.3z M-194.1,397c-0.1,0-0.2-0.1-0.2-0.3c0-0.1,0.1-0.3,0.2-0.3c0.1,0,0.2,0.1,0.2,0.3
					C-193.9,396.9-194,397-194.1,397z M-192.4,396.3h-3.4v-5.3h3.4V396.3z"/>
			</g>
			<g>
				<path fill="#FFFFFF" class ="fm_fill" d="M-195.1,395.9C-195.1,396-195.1,396-195.1,395.9l-0.4,0.1c-0.1,0-0.1,0-0.1-0.1v-0.3
					c0-0.1,0-0.1,0.1-0.1h0.3c0.1,0,0.1,0,0.1,0.1V395.9z"/>
				<path fill="#FFFFFF" class ="fm_fill" d="M-194.3,395.9C-194.3,396-194.3,396-194.3,395.9l-0.4,0.1c-0.1,0-0.1,0-0.1-0.1v-0.3
					c0-0.1,0-0.1,0.1-0.1h0.3c0.1,0,0.1,0,0.1,0.1V395.9z"/>
				<path fill="#FFFFFF" class ="fm_fill" d="M-193.5,395.9C-193.5,396-193.5,396-193.5,395.9l-0.4,0.1c-0.1,0-0.1,0-0.1-0.1v-0.3
					c0-0.1,0-0.1,0.1-0.1h0.3c0.1,0,0.1,0,0.1,0.1V395.9z"/>
				<path fill="#FFFFFF" class ="fm_fill" d="M-192.7,395.9C-192.7,396-192.7,396-192.7,395.9l-0.4,0.1c-0.1,0-0.1,0-0.1-0.1v-0.3
					c0-0.1,0-0.1,0.1-0.1h0.3c0.1,0,0.1,0,0.1,0.1V395.9z"/>
			</g>
		</g>
	</g>
	<g>
		<g>
			<g>
				<path fill="#FFFFFF" class ="fm_fill" d="M-171.5,390h-6.5c-0.3,0-0.6,0.2-0.6,0.5v6.2c0,0.3,0.2,0.5,0.6,0.5h6.5c0.3,0,0.6-0.2,0.6-0.5v-6.2
					C-170.9,390.2-171.2,390-171.5,390z M-178.2,394v-1c0-0.1,0.1-0.1,0.1-0.1s0.1,0.1,0.1,0.1v1c0,0.1-0.1,0.1-0.1,0.1
					S-178.2,394.1-178.2,394z M-171.3,393.8c-0.1,0-0.3-0.1-0.3-0.3c0-0.1,0.1-0.3,0.3-0.3c0.1,0,0.3,0.1,0.3,0.3
					S-171.1,393.8-171.3,393.8z M-171.7,396.2h-6v-5.3h6.1L-171.7,396.2L-171.7,396.2z"/>
			</g>
		</g>
	</g>
	<g>
		<g>
			<path fill="#FFFFFF" class ="fm_fill" d="M-180.1,381h-7.9c-0.1,0-0.2,0.1-0.2,0.2v5.1c0,0.1,0.1,0.2,0.2,0.2h2.6l-0.2,1.2h-0.9v0.4h4.9v-0.4h-0.9
				l-0.2-1.2h2.6c0.1,0,0.2-0.1,0.2-0.2v-5.1C-179.9,381.1-180,381-180.1,381z M-180.6,385.9h-6.9v-4.2h6.9V385.9z"/>
		</g>
	</g>
	<g>
		<g>
			<path fill="#FFFFFF" class ="fm_fill" d="M-179,405.7c-0.2-0.2-1.1-1.1-1.2-1.2v-4.8c0-0.1-0.1-0.2-0.2-0.2h-7.4c-0.1,0-0.2,0.1-0.2,0.2v4.8
				c-0.1,0.1-1,1-1.2,1.2c-0.2,0.2-0.2,0.3-0.2,0.4c0,0.1,0,0.1,0,0.2c0,0.2,0.3,0.2,0.3,0.2h5h5c0,0,0.3,0,0.3-0.2
				c0-0.1,0-0.1,0-0.2C-178.8,406-178.8,405.9-179,405.7z M-187.2,400.3h6.4v3.9h-6.4V400.3z M-183.9,405.8h-0.4h-0.8l0.3-0.5h0.5
				h0.4h0.5l0.3,0.5H-183.9z"/>
		</g>
	</g>
	<path fill="#FFFFFF" class ="fm_fill" d="M-178.7,384.4c0.1,0.1,0.1,0.1,0.2,0.2c0,0.1,0,0.2,0,0.3c-0.1,0.1-0.1,0.1-0.2,0.2c-0.1,0-0.2,0-0.3,0
		c-0.1-0.1-0.1-0.1-0.2-0.2c0-0.1,0-0.2,0-0.3c0.1-0.1,0.1-0.1,0.2-0.2C-178.9,384.4-178.8,384.4-178.7,384.4z"/>
	<path fill="#FFFFFF" class ="fm_fill" d="M-177.5,385.3c0.1,0.1,0.1,0.1,0.1,0.2c0,0.1,0,0.2-0.1,0.3c-0.1,0.1-0.1,0.1-0.2,0.1c-0.1,0-0.2,0-0.3-0.1
		c-0.1-0.1-0.1-0.1-0.1-0.2c0-0.1,0-0.2,0.1-0.3c0.1-0.1,0.1-0.1,0.2-0.1C-177.6,385.2-177.6,385.2-177.5,385.3z"/>
	<path fill="#FFFFFF" class ="fm_fill" d="M-176.4,386.2c0.1,0.1,0.1,0.2,0.1,0.3c0,0.1,0,0.2-0.1,0.3c-0.1,0.1-0.2,0.1-0.3,0.1c-0.1,0-0.2,0-0.3-0.1
		c-0.1-0.1-0.1-0.2-0.1-0.3c0-0.1,0-0.2,0.1-0.3c0.1-0.1,0.2-0.1,0.3-0.1C-176.5,386.1-176.5,386.2-176.4,386.2z"/>
	<path fill="#FFFFFF" class ="fm_fill" d="M-175.4,387.4c0.1,0.1,0.1,0.2,0.1,0.3s-0.1,0.2-0.1,0.2c-0.1,0.1-0.2,0.1-0.3,0.1c-0.1,0-0.2-0.1-0.2-0.1
		c-0.1-0.1-0.1-0.2-0.1-0.3s0.1-0.2,0.1-0.2c0.1-0.1,0.2-0.1,0.3-0.1C-175.6,387.3-175.5,387.3-175.4,387.4z"/>
	<path fill="#FFFFFF" class ="fm_fill" d="M-174.7,388.7c0.1,0.1,0.1,0.2,0,0.3c0,0.1-0.1,0.2-0.2,0.2c-0.1,0.1-0.2,0.1-0.3,0c-0.1,0-0.2-0.1-0.2-0.2
		c-0.1-0.1-0.1-0.2,0-0.3c0-0.1,0.1-0.2,0.2-0.2c0.1-0.1,0.2-0.1,0.3,0C-174.8,388.5-174.7,388.6-174.7,388.7z"/>
	<path fill="#FFFFFF" class ="fm_fill" d="M-175,398.2c-0.1,0.1-0.1,0.1-0.2,0.2s-0.2,0-0.3,0c-0.1-0.1-0.1-0.1-0.2-0.2c0-0.1,0-0.2,0-0.3
		c0.1-0.1,0.1-0.1,0.2-0.2c0.1,0,0.2,0,0.3,0c0.1,0.1,0.1,0.1,0.2,0.2C-174.9,398.1-174.9,398.2-175,398.2z"/>
	<path fill="#FFFFFF" class ="fm_fill" d="M-175.7,399.5c-0.1,0.1-0.1,0.1-0.2,0.1c-0.1,0-0.2,0-0.3-0.1c-0.1-0.1-0.1-0.1-0.1-0.2
		c0-0.1,0-0.2,0.1-0.3c0.1-0.1,0.1-0.1,0.2-0.1c0.1,0,0.2,0,0.3,0.1c0.1,0.1,0.1,0.1,0.1,0.2S-175.7,399.4-175.7,399.5z"/>
	<path fill="#FFFFFF" class ="fm_fill" d="M-176.7,400.7c-0.1,0.1-0.1,0.1-0.3,0.1c-0.1,0-0.2,0-0.3-0.1c-0.1-0.1-0.1-0.1-0.1-0.3
		c0-0.1,0-0.2,0.1-0.3c0.1-0.1,0.1-0.1,0.3-0.1c0.1,0,0.2,0,0.3,0.1c0.1,0.1,0.1,0.1,0.1,0.3C-176.6,400.5-176.6,400.6-176.7,400.7z
		"/>
	<path fill="#FFFFFF" class ="fm_fill" d="M-177.8,401.6c-0.1,0.1-0.2,0.1-0.3,0.1c-0.1,0-0.2-0.1-0.2-0.1s-0.1-0.2-0.1-0.3c0-0.1,0.1-0.2,0.1-0.2
		c0.1-0.1,0.2-0.1,0.3-0.1c0.1,0,0.2,0.1,0.2,0.1s0.1,0.2,0.1,0.3C-177.6,401.5-177.7,401.6-177.8,401.6z"/>
	<path fill="#FFFFFF" class ="fm_fill" d="M-179,402.5c-0.1,0.1-0.2,0.1-0.3,0c-0.1,0-0.2-0.1-0.2-0.2s-0.1-0.2,0-0.3c0-0.1,0.1-0.2,0.2-0.2
		c0.1-0.1,0.2-0.1,0.3,0c0.1,0,0.2,0.1,0.2,0.2s0.1,0.2,0,0.3C-178.9,402.3-178.9,402.4-179,402.5z"/>
	<path fill="#FFFFFF" class ="fm_fill" d="M-189.2,402.7c-0.1-0.1-0.1-0.1-0.2-0.2c0-0.1,0-0.2,0-0.3c0.1-0.1,0.1-0.1,0.2-0.2c0.1,0,0.2,0,0.3,0
		c0.1,0.1,0.1,0.1,0.2,0.2c0,0.1,0,0.2,0,0.3c-0.1,0.1-0.1,0.1-0.2,0.2C-189,402.7-189.1,402.7-189.2,402.7z"/>
	<path fill="#FFFFFF" class ="fm_fill" d="M-190.4,401.9c-0.1-0.1-0.1-0.1-0.1-0.2c0-0.1,0-0.2,0.1-0.3c0.1-0.1,0.1-0.1,0.2-0.1c0.1,0,0.2,0,0.3,0.1
		c0.1,0.1,0.1,0.1,0.1,0.2c0,0.1,0,0.2-0.1,0.3c-0.1,0.1-0.1,0.1-0.2,0.1C-190.3,402-190.3,402-190.4,401.9z"/>
	<path fill="#FFFFFF" class ="fm_fill" d="M-191.6,401c-0.1-0.1-0.1-0.1-0.1-0.3c0-0.1,0-0.2,0.1-0.3c0.1-0.1,0.1-0.1,0.3-0.1c0.1,0,0.2,0,0.3,0.1
		c0.1,0.1,0.1,0.1,0.1,0.3c0,0.1,0,0.2-0.1,0.3c-0.1,0.1-0.1,0.1-0.3,0.1C-191.4,401.1-191.5,401-191.6,401z"/>
	<path fill="#FFFFFF" class ="fm_fill" d="M-192.6,399.8c-0.1-0.1-0.1-0.2-0.1-0.3s0.1-0.2,0.1-0.2c0.1-0.1,0.2-0.1,0.3-0.1s0.2,0.1,0.2,0.1
		c0.1,0.1,0.1,0.2,0.1,0.3s-0.1,0.2-0.1,0.2c-0.1,0.1-0.2,0.1-0.3,0.1C-192.4,400-192.5,399.9-192.6,399.8z"/>
	<path fill="#FFFFFF" class ="fm_fill" d="M-193.4,398.6c-0.1-0.1-0.1-0.2,0-0.3c0-0.1,0.1-0.2,0.2-0.2c0.1-0.1,0.2-0.1,0.3,0c0.1,0,0.2,0.1,0.2,0.2
		s0.1,0.2,0,0.3c0,0.1-0.1,0.2-0.2,0.2c-0.1,0.1-0.2,0.1-0.3,0C-193.3,398.8-193.4,398.7-193.4,398.6z"/>
	<path fill="#FFFFFF" class ="fm_fill" d="M-193.6,388.7c0.1-0.1,0.1-0.1,0.2-0.2c0.1,0,0.2,0,0.3,0c0.1,0.1,0.1,0.1,0.2,0.2c0,0.1,0,0.2,0,0.3
		c-0.1,0.1-0.1,0.1-0.2,0.2c-0.1,0-0.2,0-0.3,0c-0.1-0.1-0.1-0.1-0.2-0.2S-193.6,388.8-193.6,388.7z"/>
	<path fill="#FFFFFF" class ="fm_fill" d="M-192.8,387.4c0.1-0.1,0.1-0.1,0.2-0.1c0.1,0,0.2,0,0.3,0.1c0.1,0.1,0.1,0.1,0.1,0.2c0,0.1,0,0.2-0.1,0.3
		c-0.1,0.1-0.1,0.1-0.2,0.1c-0.1,0-0.2,0-0.3-0.1c-0.1-0.1-0.1-0.1-0.1-0.2C-192.9,387.6-192.9,387.5-192.8,387.4z"/>
	<path fill="#FFFFFF" class ="fm_fill" d="M-191.9,386.3c0.1-0.1,0.1-0.1,0.3-0.1c0.1,0,0.2,0,0.3,0.1c0.1,0.1,0.1,0.1,0.1,0.3c0,0.1,0,0.2-0.1,0.3
		c-0.1,0.1-0.1,0.1-0.3,0.1c-0.1,0-0.2,0-0.3-0.1c-0.1-0.1-0.1-0.1-0.1-0.3S-191.9,386.4-191.9,386.3z"/>
	<path fill="#FFFFFF" class ="fm_fill" d="M-190.8,385.3c0.1-0.1,0.2-0.1,0.3-0.1c0.1,0,0.2,0.1,0.2,0.1s0.1,0.2,0.1,0.3c0,0.1-0.1,0.2-0.1,0.2
		c-0.1,0.1-0.2,0.1-0.3,0.1c-0.1,0-0.2-0.1-0.2-0.1s-0.1-0.2-0.1-0.3C-190.9,385.4-190.9,385.3-190.8,385.3z"/>
	<path fill="#FFFFFF" class ="fm_fill" d="M-189.6,384.4c0.1-0.1,0.2-0.1,0.3,0c0.1,0,0.2,0.1,0.2,0.2s0.1,0.2,0,0.3c0,0.1-0.1,0.2-0.2,0.2
		c-0.1,0.1-0.2,0.1-0.3,0c-0.1,0-0.2-0.1-0.2-0.2c-0.1-0.1-0.1-0.2,0-0.3S-189.7,384.5-189.6,384.4z"/>
</g>
</svg>
